<?xml version="1.0" encoding="UTF-8"?><svg id="_Слой_1" xmlns="http://www.w3.org/2000/svg" viewBox="0 0 232.95 192.96"><defs><style>.cls-1{fill:none;}</style></defs><path d="m185.39,88.18c-6.44-10.4-12.9-20.77-19.41-31.11-.31-.49-1.01-1-1.55-1.02-.39-.02-.84.14-1.3.43.23.17.43.38.56.59,6.35,10.09,12.65,20.2,18.94,30.35.85.94,1.71,1.9,2.58,2.86.11-1.16.38-1.78.18-2.1Zm-148.89,62.69h0c1.05.01,2.02.01,2.95,0h-2.95Zm-16.92.98c-.97-.04-2.08.15-3.15.27,1.28.27,2.95-.13,4.45-.24-.42,0-.86-.01-1.3-.03Z"/><path d="m204.43,111.66c-12.64-20.56-25.25-41.14-37.8-61.76-3.03-4.98-2.97-5.07-7.2-.76-1.26,1.27-2.83,2.24-4.09,3.41-2.34,2.19-3.04,1.03-4.15-1-3.93-7.2-7.99-14.33-11.98-21.49-5.39-9.69-10.77-19.38-16.07-28.93-2.07.6-2.22,2.33-2.83,3.52-10.43,20.36-20.79,40.75-31.04,61.2-1.35,2.69-1.93,4.04-4.77,1.1-3.49-3.62-7.67-6.59-11.59-9.79-7.55-6.16-7.4-6.05-12.7,2.51-16.38,26.41-32.99,52.68-49.27,79.15-3.48,5.65-7.6,11.02-10.24,17.6h230.15c.27-.27.54-.54.8-.81-9.07-14.65-18.19-29.27-27.22-43.95Zm-160.76,39.21c-.24.02-.49.03-.74.02-.69-.01-1.39-.02-2.1-.02h-1.38c-.93.01-1.9.01-2.95.01h-2.29c4.07-5.36,7.84-10.34,12.38-16.33.22.86.35,1.68.42,2.47.38,4.53-1.39,7.99-.9,11.62.21,1.5-1.02,2.1-2.43,2.23h0Zm16.47-76.7c-1.19,3.12-2.78,5.8-3.99,8.62-9.28,21.66-18.82,43.2-28.2,64.81-1.33,3.07-3.62,4.06-6.26,4.24-.26.02-.53.03-.81.04-1.5.11-3.17.51-4.45.24-1.57.18-3.06.2-3.85-.99-1.51-2.27,1.51-4.31,2.7-6.3,14.8-24.7,29.7-49.35,44.59-74,.15-.25.53-.38,1.54-1.07-.3,1.58-.74,3.04-1.27,4.41Zm67.9,36.64c-2.39-1.02-4.9-.8-7.58-1.04-.75-.06-1.51-.17-2.29-.34,0,8.08.06,16.27-.05,24.46-.02.99.62,2.42.03,3.26-.41-.58-.67-1.45-1.05-2.05-6.16-9.64-12.54-19.14-18.53-28.88-1.4-2.29-2.77-2.86-4.27-2.13-1.2-.66-2.43-.2-3.8,1.11-1.31,1.25-2.74,2.27-4.63,3.51,3.89-18.29-7.22-31.31-14.27-45.61,3.16,2.73,6.31,5.46,9.47,8.2,4.95,4.28,9.87,8.59,14.86,12.84.63.53,1.08,2.1,2.2,1.24.24-.18.48-.35.7-.49,1.49-.93,2.68-1.04,3.71-.68,1.9.65,3.22,2.89,4.74,4.37,6.21,6.03,12.31,12.16,18.38,18.32.87.88,2.31,1.48,2.4,3.27.01.2.01.41-.02.64Zm17.08-36.67c-.07.15-.18.29-.33.43-1.29,1.16-1.88-.67-2.74-1.21-6.15-3.86-12.49-7.46-18.31-11.76-.53-.4-1.01-.68-1.43-.87-1.76-.76-2.76.1-4.09,1.64-1.08,1.25-2.36,2.34-3.51,3.54-.18.19-.37.39-.56.55-.45.39-.94.63-1.55.35-.64-.3-1.15-.54-1.58-.72-1.75-.71-2.14-.33-4.2,1.73-2.83,2.82-5.67,5.63-8.47,8.48-.5.51-1.02,1.02-1.55,1.36-.22-.17-.45-.38-.68-.66-1.48-1.76-4.6-2.64-2.68-6.23,8.26-15.48,16.32-31.05,24.44-46.61,1.46-2.8,2.86-5.64,4.41-8.75.78,1.55.93,2.98.91,4.53-.09,7.16.05,14.32-.07,21.48-.05,3.6,1.08,5.89,5.06,5.51.19-.02.38-.03.56-.03t.02,0c.29,0,.57.02.84.07,1.58.25,2.72,1.23,3.46,2.65,3.82,7.25,7.44,14.6,11.26,21.85.48.92,1.15,1.88.79,2.67Zm40.09,16.14c-.87-.96-1.73-1.92-2.58-2.86-5.81-6.43-12.02-13.38-17.61-19.56-.32.19-.85.45-1.17.64.13.45,1.1,1.59,1.23,2.04-.19-.84-.12-1.69-.7-2.33-.32.19-1.67.8-1.99.99,3.38,11.31,6.77,22.62,10.15,33.94-5.02-11.97-10.06-23.95-15.09-35.92-.98-2.33,2.8-9,5.68-10.74.46-.29.91-.45,1.3-.43.54.02,1.24.53,1.55,1.02,6.51,10.34,12.97,20.71,19.41,31.11.2.32-.07.94-.18,2.1Z"/><path d="m157.11,190.54c-.04.64-.22,1.03-.5,1.25-.92.15-2.31.04-2.99.04h-.04c-11.96.09-23.92.06-35.89.06h-34.88c-.84,0-1.68.06-2.5-.04-.72-.09-1.33-.45-1.65-.98,1.73-1.52,2.27-1.87,3.14-1.88,7.32-.04,13.49-.19,20.8-.19,16.96,0,33.91-.03,50.87.06h.01c1.28.01,2.03.03,3.63,1.68Z"/><path class="cls-1" d="m234.09,156.67c-.11.18-1.08-.16-1.65-.26.27-.27.54-.54.8-.81.64.1,1.31.3.85,1.07Z"/><path class="cls-1" d="m128.06,110.17c-2.39-.4-4.9-.13-7.6-.74v.34c-.75-.06-1.51-.17-2.29-.34,0,8.08.06,16.27-.05,24.46-.02.99.62,2.42.03,3.26-.41-.58-.67-1.45-1.05-2.05-6.16-9.64-12.54-19.14-18.53-28.88-1.4-2.29-2.77-2.86-4.27-2.13-1.2-.66-2.43-.2-3.8,1.11-1.31,1.25-2.74,2.27-4.63,3.51,3.89-18.29-7.22-31.31-14.27-45.61,3.16,2.73,6.31,5.46,9.47,8.2,4.95,4.28,9.87,8.59,14.86,12.84.63.53,1.08,2.1,2.2,1.24.24-.18.48-.35.7-.49.4.56.84,1.06,1.59.49.78-.59,1.48-.96,2.12-1.17,1.9.65,3.22,2.89,4.74,4.37,6.21,6.03,12.31,12.16,18.38,18.32.87.88,2.31,1.48,2.4,3.27Z"/><path class="cls-1" d="m145.12,74.14c-.25-.3-.5-.61-.78-.78-6.15-3.86-12.49-7.46-18.31-11.76-1.68-1.24-2.75-1.39-3.72-.87-1.76-.76-2.76.1-4.09,1.64-1.08,1.25-2.36,2.34-3.51,3.54-.18.19-.37.39-.56.55-1.6-.74-2.26-.94-3.13-.37-1.75-.71-2.14-.33-4.2,1.73-2.83,2.82-5.67,5.63-8.47,8.48-.5.51-1.02,1.02-1.55,1.36-.22-.17-.45-.38-.68-.66-1.48-1.76-4.6-2.64-2.68-6.23,8.26-15.48,16.32-31.05,24.44-46.61,1.46-2.8,2.86-5.64,4.41-8.75.78,1.55.93,2.98.91,4.53-.09,7.16.05,14.32-.07,21.48-.05,3.6,1.08,5.89,5.06,5.51.19-.02.38-.03.56-.03t.02,0c.26.05.54.07.84.07,1.58.25,2.72,1.23,3.46,2.65,3.82,7.25,7.44,14.6,11.26,21.85.48.92,1.15,1.88.79,2.67Z"/><path class="cls-1" d="m60.14,74.17c-1.19,3.12-2.78,5.8-3.99,8.62-9.28,21.66-18.82,43.2-28.2,64.81-1.33,3.07-3.62,4.06-6.26,4.24-.26,0-.53.01-.81.04-1.5.11-3.17.51-4.45.24-.63-.13-1.18-.42-1.56-.99-1.51-2.27,1.51-4.31,2.7-6.3,14.13-23.58,28.35-47.12,42.57-70.66Z"/><path class="cls-1" d="m185.21,90.28c-.87-.96-1.73-1.92-2.58-2.86-5.81-6.43-11.39-12.61-16.98-18.79-.32.19-.65.38-.97.57.13.45.27.89.4,1.34-.57-.64-1.14-1.27-1.72-1.91-.32.19-.65.38-.97.57,3.38,11.31,6.77,22.62,10.15,33.94-5.02-11.97-10.06-23.95-15.09-35.92-.98-2.33,2.8-9,5.68-10.74.46-.29.91-.45,1.3-.43.54.02,1.24.53,1.55,1.02,6.51,10.34,12.97,20.71,19.41,31.11.2.32-.07.94-.18,2.1Z"/><path class="cls-1" d="m46.11,148.64c.21,1.5-1.02,2.1-2.43,2.23h0c-.92-.01-1.86-.01-2.84,0h-1.38c-.93.01-1.9.01-2.95.01h0c3.5-4.61,6.78-8.94,10.51-13.86.38,4.53-1.39,7.99-.9,11.62Z"/><g><path d="m67.1,175.18v.96c0,2.24-.41,5.11-4.49,5.11-3.01,0-4.32-1.6-4.32-4.87v-8.72c0-3.09,1.54-4.72,4.39-4.72,3.75,0,4.36,2.47,4.36,4.8v1.12h-3.44v-1.52c0-.98-.21-1.47-.92-1.47s-.93.47-.93,1.47v9.4c0,.95.16,1.6.93,1.6s.96-.54.96-1.68v-1.48h3.46Z"/><path d="m75.67,173.13h-3.67v4.85h4.3l-.41,3.01h-7.31v-17.78h7.28v3.02h-3.86v3.9h3.67v3.01Z"/><path d="m80.93,173.25v7.73h-3.42v-17.78h4.44c2.98,0,4.45,1.31,4.45,4.42v.64c0,2.53-1.01,3.29-1.77,3.65,1.11.53,1.62,1.35,1.62,3.83,0,1.72-.03,4.31.12,5.25h-3.31c-.22-.8-.21-3.12-.21-5.39,0-2-.23-2.34-1.53-2.34h-.4Zm0-2.69h.42c1.14,0,1.61-.36,1.61-2.02v-.86c0-1.19-.24-1.79-1.5-1.79h-.53v4.66Z"/><path d="m91.38,176.75l-.44,4.23h-3.49l2.51-17.78h5.1l2.57,17.78h-3.56l-.49-4.23h-2.21Zm1.92-3.01c-.25-2.28-.61-5.74-.77-7.44h-.13c-.06,1.24-.48,5.24-.72,7.44h1.63Z"/><path d="m108.06,175.32c0-2.75.03-6.65.07-8.83h-.09c-.37,3.56-1.16,10.76-1.64,14.5h-2.9c-.39-3.89-1.16-11.22-1.53-14.54h-.11c.04,2.09.13,5.94.13,9.01v5.54h-3.1v-17.78h4.91c.46,3.38.98,7.82,1.19,10.23h.07c.27-2.57.86-6.31,1.41-10.23h4.89v17.78h-3.29v-5.66Z"/><path d="m116.88,163.2v17.78h-3.41v-17.78h3.41Z"/><path d="m127.55,175.18v.96c0,2.24-.41,5.11-4.49,5.11-3.01,0-4.32-1.6-4.32-4.87v-8.72c0-3.09,1.54-4.72,4.39-4.72,3.75,0,4.36,2.47,4.36,4.8v1.12h-3.44v-1.52c0-.98-.21-1.47-.92-1.47s-.93.47-.93,1.47v9.4c0,.95.16,1.6.93,1.6s.96-.54.96-1.68v-1.48h3.46Z"/><path d="m134.1,166.23h-2.59v-3.02h8.61v3.02h-2.61v14.75h-3.41v-14.75Z"/><path d="m144.75,163.2v17.78h-3.41v-17.78h3.41Z"/><path d="m146.89,163.2h3.42v14.79h4.3l-.3,2.99h-7.42v-17.78Z"/><path d="m162.76,173.13h-3.67v4.85h4.3l-.41,3.01h-7.31v-17.78h7.28v3.02h-3.86v3.9h3.67v3.01Z"/><path d="m167.68,175.5v1.23c0,1.17.29,1.71,1.07,1.71s.97-.8.97-1.64c0-1.68-.32-2.16-2.13-3.68-2-1.7-3.03-2.7-3.03-5.32s.84-4.88,4.21-4.88c3.58,0,4.1,2.44,4.1,4.47v1.02h-3.23v-1.07c0-1.08-.18-1.61-.85-1.61-.63,0-.83.54-.83,1.55,0,1.07.19,1.6,1.67,2.75,2.61,2.05,3.55,3.21,3.55,6.14s-.95,5.08-4.48,5.08-4.36-2.05-4.36-4.68v-1.07h3.35Z"/></g></svg>